HIERARCHY
ROOT Pelvis
{
	OFFSET 0.000000 0.000000 0.000000
	CHANNELS 6 Xposition Yposition Zposition Xrotation Yrotation Zrotation
	JOINT LeftUpLeg_virtual
	{
		OFFSET 0.000000 0.000000 0.000000
		CHANNELS 3 Xrotation Yrotation Zrotation
		JOINT LeftUpLeg
		{
			OFFSET 18.735201 -5.666702 -4.541200
			CHANNELS 3 Xrotation Yrotation Zrotation
			JOINT LeftLeg
			{
				OFFSET -0.021200 -31.938179 0.493100
				CHANNELS 3 Xrotation Yrotation Zrotation
				JOINT LeftFoot
				{
					OFFSET 0.021200 -31.938179 -4.336299
					CHANNELS 3 Xrotation Yrotation Zrotation
					JOINT LeftToeBase
					{
						OFFSET 0.943001 -26.722000 15.023500
						CHANNELS 3 Xrotation Yrotation Zrotation
						End Site
						{
							OFFSET 0 0 0
						}
					}
				}
			}
		}
	}
	JOINT RightUpLeg_virtual
	{
		OFFSET 0.000000 0.000000 0.000000
		CHANNELS 3 Xrotation Yrotation Zrotation
		JOINT RightUpLeg
		{
			OFFSET -18.735201 -5.666702 -4.541200
			CHANNELS 3 Xrotation Yrotation Zrotation
			JOINT RightLeg
			{
				OFFSET 0.018946 -31.938133 0.493100
				CHANNELS 3 Xrotation Yrotation Zrotation
				JOINT RightFoot
				{
					OFFSET -0.018946 -31.938126 -4.336299
					CHANNELS 3 Xrotation Yrotation Zrotation
					JOINT RightToeBase
					{
						OFFSET -0.943001 -26.722004 15.023500
						CHANNELS 3 Xrotation Yrotation Zrotation
						End Site
						{
							OFFSET 0 0 0
						}
					}
				}
			}
		}
	}
	JOINT Hips_virtual
	{
		OFFSET 0.000000 0.000000 0.000000
		CHANNELS 3 Xrotation Yrotation Zrotation
		JOINT Hips
		{
			OFFSET -0.000000 -0.000000 -0.000000
			CHANNELS 3 Xrotation Yrotation Zrotation
			JOINT Spine
			{
				OFFSET 0.000000 10.199997 -0.299500
				CHANNELS 3 Xrotation Yrotation Zrotation
				JOINT Spine1
				{
					OFFSET 0.000000 11.900002 -1.516600
					CHANNELS 3 Xrotation Yrotation Zrotation
					JOINT Spine2
					{
						OFFSET 0.000000 13.600006 -2.842500
						CHANNELS 3 Xrotation Yrotation Zrotation
						JOINT Neck_virtual
						{
							OFFSET 0.000000 0.000000 0.000000
							CHANNELS 3 Xrotation Yrotation Zrotation
							JOINT Neck
							{
								OFFSET 0.000000 9.624100 -2.890100
								CHANNELS 3 Xrotation Yrotation Zrotation
								JOINT Head
								{
									OFFSET 0.000000 14.068802 -1.351900
									CHANNELS 3 Xrotation Yrotation Zrotation
									End Site
									{
										OFFSET 0 0 0
									}
								}
							}
						}
						JOINT LeftShoulder_virtual
						{
							OFFSET 0.000000 0.000000 0.000000
							CHANNELS 3 Xrotation Yrotation Zrotation
							JOINT LeftShoulder
							{
								OFFSET 15.263000 10.923401 -0.547700
								CHANNELS 3 Xrotation Yrotation Zrotation
								JOINT LeftArm
								{
									OFFSET 25.438599 -2.830597 -13.032500
									CHANNELS 3 Xrotation Yrotation Zrotation
									JOINT LeftForeArm
									{
										OFFSET 29.960503 0.000000 0.000000
										CHANNELS 3 Xrotation Yrotation Zrotation
										JOINT LeftHand
										{
											OFFSET 27.849251 0.000000 0.000000
											CHANNELS 3 Xrotation Yrotation Zrotation
											End Site
											{
												OFFSET 0 0 0
											}
										}
									}
								}
							}
						}
						JOINT RightShoulder_virtual
						{
							OFFSET 0.000000 0.000000 0.000000
							CHANNELS 3 Xrotation Yrotation Zrotation
							JOINT RightShoulder
							{
								OFFSET -15.263000 10.923401 -0.547700
								CHANNELS 3 Xrotation Yrotation Zrotation
								JOINT RightArm
								{
									OFFSET -25.438599 -2.830597 -13.032500
									CHANNELS 3 Xrotation Yrotation Zrotation
									JOINT RightForeArm
									{
										OFFSET -29.960503 0.000000 0.000000
										CHANNELS 3 Xrotation Yrotation Zrotation
										JOINT RightHand
										{
											OFFSET -27.849251 0.000000 0.000000
											CHANNELS 3 Xrotation Yrotation Zrotation
											End Site
											{
												OFFSET 0 0 0
											}
										}
									}
								}
							}
						}
					}
				}
			}
		}
	}
}
MOTION
Frames: 12
Frame Time: 0.03333333
-10.960849 69.707603 0.873989 0.000000 0.000000 0.000000 -5.840745 2.125064 -0.246425 -74.842146 -8.987495 7.227174 67.344484 -20.190992 -10.571915 9.970615 -4.407128 -3.479389 0.000000 0.000000 0.000000 -5.840745 2.125064 -0.246425 -13.453938 0.933951 -6.056446 94.479582 -8.274737 -6.286556 -40.559630 -4.239135 22.210836 0.000000 0.000000 0.000000 -5.840745 2.125064 -0.246425 0.000000 0.000000 0.000000 10.215619 0.416553 -1.076394 6.501258 0.729002 -3.378758 0.000000 0.000000 0.000000 6.523719 0.729118 -3.378284 1.880830 -1.265437 2.028045 0.000000 0.000000 0.000000 6.523719 0.729118 -3.378284 -7.792790 -34.654563 -7.359482 -44.353210 -10.873685 -37.210635 -98.512501 -63.863362 -100.923702 0.000000 0.000000 0.000000 6.523719 0.729118 -3.378284 -10.485881 37.534871 14.174108 -47.959372 3.085225 36.191731 -96.820445 58.006112 104.472764 0.000000 0.000000 0.000000 
-11.267172 72.272888 1.388634 0.000000 0.000000 0.000000 -2.901985 4.705132 -0.024820 -72.865407 -8.572827 4.557016 60.404274 -19.731686 -9.168387 11.542536 -4.049540 -4.934144 0.000000 0.000000 0.000000 -2.901985 4.705132 -0.024820 -11.219018 -2.465822 -4.556444 86.248815 -9.792814 -6.787504 -41.850820 -3.322109 19.869348 0.000000 0.000000 0.000000 -2.901985 4.705132 -0.024820 0.000000 0.000000 0.000000 8.953664 0.270738 -1.351172 3.966864 0.230935 -3.978306 0.000000 0.000000 0.000000 3.989347 0.231038 -3.977842 0.874941 -1.742024 2.141496 0.000000 0.000000 0.000000 3.989347 0.231038 -3.977842 -8.173991 -31.527989 -8.252504 -31.588563 -14.766833 -24.997729 -124.594467 -59.639655 -127.258637 0.000000 0.000000 0.000000 3.989347 0.231038 -3.977842 -8.947958 32.923236 10.353822 -34.168414 8.238676 31.408854 -129.897180 61.687687 135.132492 0.000000 0.000000 0.000000 
-11.526864 75.370453 2.059204 0.000000 0.000000 0.000000 1.147548 7.639501 0.285972 -70.105424 -8.284419 1.294564 50.554195 -19.187299 -7.174071 14.105291 -3.652017 -7.101367 0.000000 0.000000 0.000000 1.147548 7.639501 0.285972 -10.367816 -4.639026 -2.727079 76.589507 -11.516666 -7.431215 -40.151025 -2.304247 18.126487 0.000000 0.000000 0.000000 1.147548 7.639501 0.285972 0.000000 0.000000 0.000000 7.511664 0.072388 -1.603839 1.064139 -0.427327 -4.603812 0.000000 0.000000 0.000000 1.086616 -0.427256 -4.603352 -1.245272 -2.036249 1.598583 0.000000 0.000000 0.000000 1.086616 -0.427256 -4.603352 -8.676804 -25.765731 -10.075468 -18.326610 -15.006474 -10.670912 -143.139919 -54.309573 -144.303811 0.000000 0.000000 0.000000 1.086616 -0.427256 -4.603352 -7.681963 25.388558 6.444245 -12.655750 14.347770 25.486337 -174.509366 58.206353 170.828359 0.000000 0.000000 0.000000 
-11.880115 80.812103 3.574329 0.000000 0.000000 0.000000 6.227289 10.457490 0.730478 -61.543208 -9.004922 -2.536393 31.966242 -18.380724 -3.359760 18.708318 -2.651240 -10.672008 0.000000 0.000000 0.000000 6.227289 10.457490 0.730478 -7.774873 -6.668601 -0.580531 58.969408 -13.706812 -9.527238 -32.799719 -0.597072 17.152217 0.000000 0.000000 0.000000 6.227289 10.457490 0.730478 0.000000 0.000000 0.000000 6.032421 -0.041079 -1.801313 -1.909138 -0.850890 -5.060079 0.000000 0.000000 0.000000 -1.886655 -0.850854 -5.059593 -4.589942 -1.693004 1.181253 0.000000 0.000000 0.000000 -1.886655 -0.850854 -5.059593 -7.298173 -17.415329 -8.034948 -14.064196 -8.494672 -2.706167 -146.039963 -74.946286 -142.967935 0.000000 0.000000 0.000000 -1.886655 -0.850854 -5.059593 -7.063745 17.810818 3.824991 -0.653492 7.660503 19.416993 140.340074 70.312126 -146.961478 0.000000 0.000000 0.000000 
-12.130561 85.222359 5.936008 0.000000 0.000000 0.000000 8.552037 10.829910 0.478443 -50.869292 -9.692045 -2.106409 14.110022 -18.857480 -1.695233 24.698528 -2.581966 -13.214574 0.000000 0.000000 0.000000 8.552037 10.829910 0.478443 -3.224474 -8.527169 1.731924 41.676537 -15.076323 -13.280088 -21.576311 2.424288 17.987030 0.000000 0.000000 0.000000 8.552037 10.829910 0.478443 0.000000 0.000000 0.000000 4.933030 0.359932 -1.727097 -4.077860 0.059076 -4.730979 0.000000 0.000000 0.000000 -4.055390 0.059095 -4.730493 -7.962425 -1.091086 0.758187 0.000000 0.000000 0.000000 -4.055390 0.059095 -4.730493 -6.234566 -9.589494 -4.102895 -16.932473 -1.577843 0.230448 18.865582 -71.495442 19.254438 0.000000 0.000000 0.000000 -4.055390 0.059095 -4.730493 -6.827205 11.482304 1.525859 1.768700 -5.447525 15.892506 58.267736 68.104841 -58.040325 0.000000 0.000000 0.000000 
-12.074431 87.813194 7.906067 0.000000 0.000000 0.000000 8.508915 7.971597 -1.051817 -47.062613 -7.371112 2.202056 11.944610 -20.275184 -2.527847 25.725453 -2.102448 -14.370173 0.000000 0.000000 0.000000 8.508915 7.971597 -1.051817 -2.880372 -10.583708 -0.270339 35.408599 -10.815542 -10.199899 -9.627240 4.613437 16.033698 0.000000 0.000000 0.000000 8.508915 7.971597 -1.051817 0.000000 -0.000001 0.000000 4.697252 0.847225 -1.243273 -4.526451 1.331907 -3.228477 0.000000 0.000000 0.000000 -4.503989 1.331914 -3.227987 -10.979597 -0.485706 0.344065 0.000000 0.000000 0.000000 -4.503989 1.331914 -3.227987 -6.136154 -1.923156 -0.288157 -22.618624 3.712884 2.278975 26.288643 -37.020657 14.152462 0.000000 0.000000 0.000000 -4.503989 1.331914 -3.227987 -6.866816 6.010464 -0.591216 0.149007 -19.940683 11.679593 28.572278 43.904743 -17.531861 0.000000 0.000000 0.000000 
-11.798601 89.016922 9.244385 0.000000 0.000000 0.000000 8.425207 3.291338 -3.537595 -49.562253 -5.751227 8.279000 21.190197 -20.752043 -4.732363 20.220900 -1.373955 -12.233326 0.000000 0.000000 0.000000 8.425207 3.291338 -3.537595 -6.500695 -13.097842 -4.627813 33.509615 -4.645201 -4.063252 5.228236 6.606073 12.374113 0.000000 0.000000 0.000000 8.425207 3.291338 -3.537595 0.000002 0.000001 -0.000000 4.749868 1.396700 -0.619642 -4.442808 2.830393 -1.009443 0.000000 0.000000 0.000000 -4.420353 2.830417 -1.008957 -13.283810 -0.058946 0.102214 0.000000 0.000000 0.000000 -4.420353 2.830417 -1.008957 -6.875598 6.127645 3.516703 -28.356461 6.793800 3.845498 35.046606 -12.233109 2.641562 0.000000 0.000000 0.000000 -4.420353 2.830417 -1.008957 -7.217529 0.715011 -2.125557 -1.585986 -32.412687 6.133364 23.011831 20.970875 -1.675140 0.000000 0.000000 0.000000 
-11.579281 89.173515 10.381538 0.000000 0.000000 0.000000 6.585354 0.463766 -4.589053 -49.428235 -5.426160 11.341369 29.079401 -20.600945 -5.952614 13.681227 -0.592117 -8.369249 0.000000 0.000000 0.000000 6.585354 0.463766 -4.589053 -8.160315 -15.851498 -7.459798 32.327924 0.588347 -1.725735 17.215270 7.844418 8.970373 0.000000 0.000000 0.000000 6.585354 0.463766 -4.589053 0.000000 0.000000 0.000000 5.339386 1.893427 -0.535181 -3.315369 4.039308 0.152995 0.000000 0.000000 0.000000 -3.292927 4.039344 0.153476 -13.800248 0.103826 0.573884 0.000000 0.000000 0.000000 -3.292927 4.039344 0.153476 -7.965490 13.414949 7.106682 -31.786625 6.667353 3.563242 43.172342 -2.367198 -2.197195 0.000000 0.000000 0.000000 -3.292927 4.039344 0.153476 -7.772263 -3.465204 -3.863987 0.605058 -39.478835 3.837532 24.585807 10.750043 1.791099 0.000000 0.000000 0.000000 
-11.298045 88.672119 11.367214 0.000000 0.000000 0.000000 5.070488 0.538420 -4.751610 -48.637559 -6.423486 10.586359 34.258832 -20.594212 -4.757882 8.058041 -0.117040 -7.178472 0.000000 0.000000 0.000000 5.070488 0.538420 -4.751610 -7.620206 -16.348208 -7.793878 32.129463 3.253903 -1.948966 22.102222 8.486380 8.054532 0.000000 0.000000 0.000000 5.070488 0.538420 -4.751610 0.000000 0.000000 0.000000 5.632416 2.063186 -0.602291 -2.763123 4.450616 0.583788 0.000000 0.000000 0.000000 -2.740690 4.450653 0.584271 -11.856563 0.074836 1.199890 0.000000 0.000000 0.000000 -2.740690 4.450653 0.584271 -7.629450 12.813471 8.420945 -35.674300 10.894108 6.558641 45.796292 -0.086027 0.732057 0.000000 0.000000 0.000000 -2.740690 4.450653 0.584271 -8.162592 -5.215798 -5.620573 3.431182 -43.876497 3.937675 25.312582 5.969457 3.209238 0.000000 0.000000 0.000000 
-10.835426 88.109161 11.995758 0.000000 0.000000 0.000000 3.419429 2.572418 -4.320323 -47.959406 -7.683729 8.093275 37.273746 -19.509701 -3.199112 5.501254 -1.042581 -7.832459 0.000000 0.000000 0.000000 3.419429 2.572418 -4.320323 -5.405122 -16.631646 -7.722436 33.913409 3.473497 -2.828668 20.009106 8.532607 8.512123 0.000000 0.000000 0.000000 3.419429 2.572418 -4.320323 0.000000 0.000000 0.000000 6.064563 1.857236 -0.615400 -1.887196 3.962143 0.504074 0.000000 0.000000 0.000000 -1.864756 3.962191 0.504554 -10.626523 -0.070675 1.198435 0.000000 0.000000 0.000000 -1.864756 3.962191 0.504554 -6.927136 9.836062 8.687526 -36.256516 14.248961 8.649424 45.062784 0.154690 1.192953 0.000000 0.000000 0.000000 -1.864756 3.962191 0.504554 -8.468564 -6.883025 -7.235855 2.734826 -43.896178 3.437934 25.279059 2.763451 3.561210 0.000000 0.000000 0.000000 
-10.431392 87.705833 12.311035 0.000000 0.000000 0.000000 2.538701 4.757058 -3.476955 -47.562828 -8.503446 4.968525 38.039998 -19.364252 -1.763956 4.983624 -0.815488 -8.412842 0.000000 0.000000 0.000000 2.538701 4.757058 -3.476955 -3.823643 -16.703873 -7.983290 35.247956 2.435323 -3.637521 17.854984 8.484718 9.713852 0.000000 0.000000 0.000000 2.538701 4.757058 -3.476955 0.000000 0.000000 0.000000 6.292079 1.537739 -0.734548 -1.409345 3.243633 0.080326 0.000000 0.000000 0.000000 -1.386902 3.243690 0.080813 -9.818965 -0.179248 1.084489 0.000000 0.000000 0.000000 -1.386902 3.243690 0.080813 -6.368544 6.889105 8.266296 -35.762413 15.923970 9.258643 41.952337 -0.383342 0.867256 0.000000 0.000000 0.000000 -1.386902 3.243690 0.080813 -8.594032 -7.395232 -7.325778 1.130003 -42.960589 2.686286 23.350158 2.019150 3.057198 0.000000 0.000000 0.000000 
-10.056606 87.498199 12.537907 0.000000 0.000000 0.000000 2.074319 6.706994 -2.706110 -47.419357 -8.430836 3.188165 37.317176 -20.298871 -2.194686 5.948210 -0.738137 -7.645432 0.000000 0.000000 0.000000 2.074319 6.706994 -2.706110 -2.339492 -16.548734 -7.955677 35.675594 0.947001 -4.320510 16.068946 8.383959 10.990509 0.000000 0.000000 0.000000 2.074319 6.706994 -2.706110 0.000000 0.000000 0.000000 6.397361 1.273731 -0.841394 -1.181336 2.647653 -0.339466 0.000000 0.000000 0.000000 -1.158881 2.647697 -0.338982 -9.295788 -0.273858 1.196011 0.000000 0.000000 0.000000 -1.158881 2.647697 -0.338982 -5.929817 3.650243 7.237753 -34.629797 16.507199 9.040588 37.589728 -1.134239 0.083168 0.000000 0.000000 0.000000 -1.158881 2.647697 -0.338982 -8.713563 -8.229703 -6.353369 -1.599014 -39.944480 1.691612 20.506613 1.115776 2.610817 0.000000 0.000000 0.000000 
